# xmcd CD database file
#
# Track frame offsets:
#	150
#	47165
#	77838
#	166966
#
# Disc length: 2837 seconds
#
# Revision: 0
# Processed by: cddbd v1.5.2PL0 Copyright (c) Steve Scherf et al.
# Submitted via: CDex 1.70beta2
#
DISCID=290b1304
DTITLE=Masayuki Takayanagi - April is the Cruellest Month
DYEAR=1975
DGENRE=Jazz
TTITLE0=We Have Existed
TTITLE1=What Have We Given?
TTITLE2=My Friend, Blood Shaking My Heart
TTITLE3=WE Have Existed (Alternate Take)
EXTD=YEAR: 1975
EXTT0=
EXTT1=
EXTT2=
EXTT3=
PLAYORDER=
